<?xml version="1.0" encoding="UTF-8"?>
<svg width="1440px" height="535px" viewBox="0 0 1440 535" version="1.1" xmlns="http://www.w3.org/2000/svg" xmlns:xlink="http://www.w3.org/1999/xlink">
    <title>Combined Shape</title>
    <defs>
        <linearGradient x1="11.2549707%" y1="32.2094513%" x2="91.4159192%" y2="52.8827592%" id="linearGradient-1">
            <stop stop-color="#6236FF" offset="0%"></stop>
            <stop stop-color="#0091FF" offset="100%"></stop>
        </linearGradient>
    </defs>
    <g id="Page-1" stroke="none" stroke-width="1" fill="none" fill-rule="evenodd">
        <g id="Desktop-HD" transform="translate(0.000000, -315.000000)" fill="url(#linearGradient-1)">
            <g id="Hero" transform="translate(0.000000, 50.000000)">
                <g id="Combined-Shape">
                    <path d="M1216,265 C1426.42049,265 1597,435.57951 1597,646 C1597,856.42049 1426.42049,1027 1216,1027 C1125.86584,1027 1043.04194,995.701059 977.803911,943.378791 C934.084511,1021.8884 850.244695,1075 754,1075 C677.263527,1075 608.412796,1041.23712 561.492593,987.756142 C497.217273,1062.59461 401.894698,1110 295.5,1110 C128.697678,1110 -10.890475,993.482288 -46.3124941,837.398827 C-135.044704,820.018085 -202,741.828166 -202,648 C-202,541.409043 -115.590957,455 -9,455 C25.0745119,455 57.0865858,463.830347 84.8726874,479.327506 C143.505381,435.171696 216.446327,409 295.5,409 C434.275793,409 554.2143,489.652011 611.00013,606.640642 L610.988013,606.639726 C651.822294,579.0862 701.03258,563 754,563 C784.553224,563 813.856323,568.352416 841.022795,578.170745 C873.011906,400.114001 1028.72717,265 1216,265 Z"></path>
                </g>
            </g>
        </g>
    </g>
</svg>