<?xml version="1.0" encoding="UTF-8"?>
<svg width="50px" height="51px" viewBox="0 0 50 51" version="1.1" xmlns="http://www.w3.org/2000/svg" xmlns:xlink="http://www.w3.org/1999/xlink">
    <title>scrool down</title>
    <defs>
        <path d="M26.7888544,17.5777088 L36.5527864,37.1055728 C37.0467649,38.0935298 36.6463162,39.2948759 35.6583592,39.7888544 C35.3806483,39.9277098 35.0744222,40 34.763932,40 L15.236068,40 C14.1314985,40 13.236068,39.1045695 13.236068,38 C13.236068,37.6895098 13.3083582,37.3832837 13.4472136,37.1055728 L23.2111456,17.5777088 C23.7051241,16.5897518 24.9064702,16.1893031 25.8944272,16.6832816 C26.281482,16.876809 26.595327,17.190654 26.7888544,17.5777088 Z" id="path-1"></path>
        <filter x="-54.9%" y="-65.5%" width="217.4%" height="217.4%" filterUnits="objectBoundingBox" id="filter-2">
            <feOffset dx="1" dy="-3" in="SourceAlpha" result="shadowOffsetOuter1"></feOffset>
            <feGaussianBlur stdDeviation="5" in="shadowOffsetOuter1" result="shadowBlurOuter1"></feGaussianBlur>
            <feColorMatrix values="0 0 0 0 0.384313725   0 0 0 0 0.211764706   0 0 0 0 1  0 0 0 1 0" type="matrix" in="shadowBlurOuter1"></feColorMatrix>
        </filter>
    </defs>
    <g id="Page-1" stroke="none" stroke-width="1" fill="none" fill-rule="evenodd">
        <g id="Desktop-HD" transform="translate(-695.000000, -742.000000)">
            <g id="Hero" transform="translate(0.000000, 50.000000)">
                <g id="scrool-down" transform="translate(695.000000, 692.000000)">
                    <circle id="Oval" fill="#0091FF" cx="25" cy="25" r="25"></circle>
                    <g id="Triangle" transform="translate(25.000000, 27.000000) scale(1, -1) translate(-25.000000, -27.000000) ">
                        <use fill="black" fill-opacity="1" filter="url(#filter-2)" xlink:href="#path-1"></use>
                        <use fill="#FFFFFF" fill-rule="evenodd" xlink:href="#path-1"></use>
                    </g>
                </g>
            </g>
        </g>
    </g>
</svg>